<?xml version="1.0" encoding="UTF-8" standalone="no"?>
<!-- Created with Inkscape (http://www.inkscape.org/) -->

<svg
   xmlns:dc="http://purl.org/dc/elements/1.1/"
   xmlns:cc="http://creativecommons.org/ns#"
   xmlns:rdf="http://www.w3.org/1999/02/22-rdf-syntax-ns#"
   xmlns:svg="http://www.w3.org/2000/svg"
   xmlns="http://www.w3.org/2000/svg"
   xmlns:xlink="http://www.w3.org/1999/xlink"
   version="1.1"
   width="744.09448"
   height="1052.3622"
   id="svg2">
  <defs
     id="defs4">
    <linearGradient
       id="linearGradient3785">
      <stop
         id="stop3787"
         style="stop-color:#4c4900;stop-opacity:1"
         offset="0" />
      <stop
         id="stop3811"
         style="stop-color:#f7fa01;stop-opacity:1"
         offset="0.04743016" />
      <stop
         id="stop3809"
         style="stop-color:#dfec14;stop-opacity:1"
         offset="0.09486032" />
      <stop
         id="stop3807"
         style="stop-color:#e1ee12;stop-opacity:1"
         offset="0.88878131" />
      <stop
         id="stop3805"
         style="stop-color:#7fff01;stop-opacity:1"
         offset="1" />
    </linearGradient>
    <linearGradient
       x1="336.04163"
       y1="14.945222"
       x2="417.14285"
       y2="1052.0881"
       id="linearGradient3791"
       xlink:href="#linearGradient3785"
       gradientUnits="userSpaceOnUse" />
  </defs>
  <metadata
     id="metadata7">
    <rdf:RDF>
      <cc:Work
         rdf:about="">
        <dc:format>image/svg+xml</dc:format>
        <dc:type
           rdf:resource="http://purl.org/dc/dcmitype/StillImage" />
        <dc:title></dc:title>
      </cc:Work>
    </rdf:RDF>
  </metadata>
  <g
     id="layer1">
    <path
       d="m 565.71427,532.36219 c 0,67.06315 -10.75695,133.3013 -27.55136,194.74994 -16.79441,61.44864 -39.62627,118.10776 -63.77608,166.01284 -24.14982,47.90509 -49.61758,87.05613 -71.68379,113.48863 -22.06621,26.4325 -43.23087,30.8607 -51.63162,27.1772 -10.47727,-4.594 -13.12496,-9.8501 -10.63612,-37.42071 2.48885,-27.57064 9.93676,-65.96291 18.76116,-112.35043 8.8244,-46.38753 19.02528,-100.77033 27.02006,-160.32202 7.99479,-59.5517 13.78347,-124.2723 13.78347,-191.33545 0,-67.06315 -5.6035,-128.08522 -13.3668,-182.21018 -7.7633,-54.12497 -23.24225,-101.35282 -31.88146,-140.82753 -8.63921,-39.47471 -15.99454,-71.19628 -18.62227,-94.30867 -0.65693,-5.7781 -0.98682,-10.73402 -0.95165,-14.99644 0.0352,-4.262415 0.43541,-7.831331 1.23874,-10.835424 0.80333,-3.004092 7.67451,-5.509532 7.07026,-9.410766 -0.60679,-3.917649 -10.29749,-19.923639 -22.1458,-39.6221 -5.78273,-9.614096 -9.45479,-21.435253 -12.28141,-29.343039 -1.41331,-3.9538946 -2.91399,-3.875682 -5.18065,-6.3207549 -0.54833,-0.5914961 3.47641,-1.668189 3.79738,-1.8256288 0.31286,-0.1534597 2.94053,-0.7611936 3.77894,-1.1740162 7.23532,-3.5625978 0.71911,2.7852556 3.24043,6.0765403 5.04265,6.5825746 13.1512,14.3310846 19.19224,23.9646436 12.21422,19.477869 22.38639,38.712701 26.25847,41.329214 3.40124,2.298347 9.43323,-0.314927 13.66855,1.328988 4.23533,1.643914 11.34425,5.533829 16.26724,8.912132 4.92298,3.378302 10.51719,8.030707 16.0088,13.342459 21.96647,21.247012 43.21502,55.997882 67.49783,97.959772 24.28281,41.96189 47.31417,92.92052 64.27483,150.15446 16.96066,57.23394 27.85061,120.74319 27.85061,187.80634 z"
       id="path2990"
       style="fill:url(#linearGradient3791);fill-opacity:1;fill-rule:nonzero;stroke:none" />
  </g>
</svg>
