<?xml version="1.0" encoding="UTF-8" standalone="no"?>
<!-- Created with Inkscape (http://www.inkscape.org/) -->

<svg
   xmlns:dc="http://purl.org/dc/elements/1.1/"
   xmlns:cc="http://creativecommons.org/ns#"
   xmlns:rdf="http://www.w3.org/1999/02/22-rdf-syntax-ns#"
   xmlns:svg="http://www.w3.org/2000/svg"
   xmlns="http://www.w3.org/2000/svg"
   xmlns:xlink="http://www.w3.org/1999/xlink"
   version="1.1"
   width="744.09448"
   height="1052.3622"
   id="svg2">
  <defs
     id="defs4">
    <linearGradient
       id="linearGradient3793">
      <stop
         id="stop3795"
         style="stop-color:#88aa00;stop-opacity:1"
         offset="0" />
      <stop
         id="stop3803"
         style="stop-color:#506400;stop-opacity:1"
         offset="0.5" />
      <stop
         id="stop3797"
         style="stop-color:#88aa00;stop-opacity:1"
         offset="1" />
    </linearGradient>
    <linearGradient
       id="linearGradient3758">
      <stop
         id="stop3766"
         style="stop-color:#ffd429;stop-opacity:1"
         offset="0" />
      <stop
         id="stop3768"
         style="stop-color:#ffe57d;stop-opacity:1"
         offset="0.45448914" />
      <stop
         id="stop3762"
         style="stop-color:#ffd429;stop-opacity:1"
         offset="1" />
    </linearGradient>
    <linearGradient
       x1="264.00113"
       y1="197.62651"
       x2="263.98602"
       y2="156.71533"
       id="linearGradient3817"
       xlink:href="#linearGradient3793"
       gradientUnits="userSpaceOnUse"
       gradientTransform="matrix(-1.3080828,-1.7833407,2.9241854,-2.3647184,354.759,1043.4129)" />
    <linearGradient
       x1="265.50916"
       y1="277.27225"
       x2="568.57141"
       y2="395.17609"
       id="linearGradient3821"
       xlink:href="#linearGradient3758"
       gradientUnits="userSpaceOnUse"
       gradientTransform="matrix(1.433842,0.97038855,-1.1729346,1.541176,275.19297,-319.77214)" />
  </defs>
  <metadata
     id="metadata7">
    <rdf:RDF>
      <cc:Work
         rdf:about="">
        <dc:format>image/svg+xml</dc:format>
        <dc:type
           rdf:resource="http://purl.org/dc/dcmitype/StillImage" />
        <dc:title></dc:title>
      </cc:Work>
    </rdf:RDF>
  </metadata>
  <g
     id="layer1">
    <g
       id="g3823">
      <path
         d="m 605.08505,869.68741 c -63.39124,83.29286 -148.9813,139.61539 -236.11688,163.34319 -43.56778,11.8639 -93.06562,13.0332 -140.36815,5.3508 -47.30253,-7.6824 -114.63311,-10.0743 -149.419646,-33.617 C 44.393816,981.22176 45.444524,938.7571 32.462123,905.64015 19.479722,872.52319 14.687568,834.61181 12.662,791.89144 8.6108625,706.45066 37.800786,611.95801 101.19204,528.66515 164.58331,445.3723 250.17341,389.04987 337.30894,365.32201 c 43.56775,-11.86395 100.51839,-25.76462 152.76089,-19.25287 14.08979,1.7562 27.44649,2.15513 40.09956,2.1335 12.65308,-0.0217 24.60254,-0.46383 35.87786,-0.38985 11.27533,0.074 21.87649,0.66416 31.833,2.70725 9.95652,2.04309 19.26835,5.53911 27.96497,11.42477 8.69665,5.88567 15.02297,13.12262 19.89048,21.33558 4.86751,8.21294 8.27622,17.40189 11.13764,27.19155 2.86145,9.78965 5.17558,20.18001 7.85398,30.79577 2.67841,10.61577 5.72104,21.45694 10.03944,32.14825 17.0451,42.19947 16.82277,90.3248 18.84835,133.04519 4.05115,85.44074 -25.13879,179.93339 -88.53006,263.22626 z"
         id="path3755"
         style="fill:url(#linearGradient3821);fill-opacity:1;fill-rule:nonzero;stroke:none" />
      <path
         d="m 628.95062,366.19712 c -7.02972,-3.97191 -13.15155,-9.13733 -19.2833,-14.21556 -4.47118,-4.12788 -9.05155,-8.33777 -12.35545,-13.40318 -1.71205,-2.62489 -2.02429,-3.68252 -3.22064,-6.4821 -2.33948,-6.37671 -1.48959,-12.83658 2.4316,-18.51251 0.91315,-1.32177 2.05025,-2.49325 3.07538,-3.73989 4.34403,-4.47033 9.13286,-8.79723 14.70829,-11.9014 20.33239,-11.32026 13.56038,-8.57841 25.69019,-12.97437 16.53681,-5.42705 33.64619,-9.10565 50.77004,-12.44843 14.88173,-2.57426 29.79517,-5.09318 44.55274,-8.25357 0,0 -15.10955,10.80859 -15.10955,10.80859 l 0,0 c -14.47652,2.61 -29.00491,4.97072 -43.49795,7.49876 -17.40056,3.47588 -34.80827,7.30235 -51.44363,13.33857 -8.83743,3.65583 -8.29206,3.66115 6.71935,-4.46562 1.37618,-0.74503 -2.75331,1.4965 -4.05195,2.35645 -1.20926,0.80079 -6.4588,4.87805 -7.5345,5.81475 -1.17585,1.0239 -2.25055,2.14646 -3.37583,3.2197 -1.02843,1.13707 -2.15488,2.20137 -3.08529,3.41118 -4.31511,5.61082 -5.08237,10.45005 -2.99553,16.99554 1.08248,2.75 1.27653,3.59853 2.88457,6.18489 3.09404,4.97636 7.45382,9.18847 11.80191,13.18236 6.07919,4.93096 12.3112,10.15755 19.83469,13.01919 0,0 -16.51514,10.56665 -16.51514,10.56665 z"
         id="path3788"
         style="fill:#88aa00;fill-opacity:1;fill-rule:nonzero;stroke:none" />
      <path
         d="m 425.50735,6.5748233 c 8.21908,-6.64658351 25.34707,-0.3024475 38.00502,1.4856508 12.65784,1.7881926 29.80683,9.6403889 42.56659,16.9341559 18.3635,10.497217 31.86914,22.281815 48.44816,38.341611 16.57891,16.059793 33.31201,35.254579 49.37332,57.151259 64.24505,87.58677 62.57832,143.20185 29.7019,169.7882 -32.87646,26.5864 -84.51296,14.07639 -148.75802,-73.5104 -16.06131,-21.89667 -29.46292,-43.78554 -40.01736,-64.71722 -10.55433,-20.93173 -18.26142,-40.90634 -22.93343,-58.974714 -4.67201,-18.068405 -6.30903,-34.230511 -4.72324,-47.537169 1.5857,-13.306632 0.11798,-32.314778 8.33706,-38.9613737 z"
         id="path3790"
         style="fill:url(#linearGradient3817);fill-opacity:1;fill-rule:nonzero;stroke:none" />
    </g>
  </g>
</svg>
